<svg width="68" height="68" viewBox="0 0 68 68" fill="none" xmlns="http://www.w3.org/2000/svg">
<mask id="mask0_358_858" style="mask-type:alpha" maskUnits="userSpaceOnUse" x="0" y="0" width="68" height="68">
<g clip-path="url(#clip0_358_858)">
<path d="M21.0891 15.1582C22.8997 15.1582 24.5742 15.2999 26.1042 15.7192C27.4925 15.9743 28.8178 16.4979 30.0057 17.2605C31.122 17.9604 31.9578 18.9435 32.5132 20.2044C33.0713 21.4652 33.349 23.0094 33.349 24.6895C33.349 26.653 32.9325 28.3332 31.9578 29.594C31.122 30.8577 29.728 31.9769 28.0563 32.8184C30.425 33.521 32.2355 34.7819 33.349 36.462C34.4653 38.145 35.1623 40.2474 35.1623 42.6302C35.1623 44.5937 34.743 46.2739 34.046 47.6764C33.349 49.0789 32.2355 50.3397 30.9803 51.1812C29.6169 52.0832 28.1097 52.7463 26.5235 53.1419C24.8518 53.564 23.1802 53.8445 21.5085 53.8445H2.83398V15.1582H21.0891ZM19.9728 30.8549C21.5056 30.8549 22.7608 30.4355 23.7355 29.7357C24.7101 29.0359 25.1295 27.7722 25.1295 26.2309C25.1295 25.3894 24.9878 24.5479 24.7101 23.9897C24.4325 23.4287 24.0132 23.0065 23.4578 22.5872C22.8997 22.3067 22.3415 22.0262 21.6445 21.8874C20.9475 21.7457 20.2533 21.7457 19.4147 21.7457H11.334V30.8577H19.9757L19.9728 30.8549ZM20.3922 47.3959C21.228 47.3959 22.0638 47.2542 22.7608 47.1154C23.4645 46.9815 24.1301 46.6942 24.7101 46.2739C25.2779 45.8637 25.7529 45.3385 26.1042 44.7325C26.3818 44.0327 26.6623 43.1912 26.6623 42.2109C26.6623 40.2474 26.1041 38.8449 24.9907 37.8645C23.8743 37.023 22.3415 36.6037 20.531 36.6037H11.334V47.3987H20.3922V47.3959ZM47.2861 47.2542C48.3996 48.3762 50.0713 48.9372 52.3011 48.9372C53.834 48.9372 55.228 48.5179 56.3415 47.818C57.4578 46.9765 58.1548 46.135 58.4325 45.2935H65.2608C64.1445 48.6567 62.4728 51.0395 60.2458 52.5809C58.0131 53.9834 55.3668 54.8249 52.1623 54.8249C50.112 54.8311 48.079 54.4504 46.1698 53.7029C44.452 53.0584 42.92 51.9995 41.7101 50.6202C40.4162 49.3298 39.4596 47.7408 38.925 45.9934C38.228 44.1715 37.9475 42.2109 37.9475 39.9669C37.9475 37.8645 38.228 35.9039 38.925 34.0792C39.5951 32.3228 40.5867 30.7066 41.849 29.3135C43.1042 28.0527 44.637 26.9335 46.3087 26.2309C48.1693 25.483 50.157 25.1021 52.1623 25.1089C54.531 25.1089 56.622 25.531 58.4325 26.5114C60.2458 27.4917 61.637 28.6137 62.7533 30.2967C63.8921 31.9132 64.7406 33.7157 65.2608 35.6234C65.5385 37.584 65.6773 39.5475 65.5385 41.7887H45.334C45.334 44.0327 46.1698 46.135 47.2861 47.257V47.2542ZM56.0638 32.5379C55.0892 31.5575 53.5563 30.9965 51.743 30.9965C50.6798 30.9806 49.6283 31.2206 48.6773 31.6964C47.8415 32.1185 47.2862 32.6795 46.728 33.2405C46.2151 33.7824 45.8757 34.4652 45.7533 35.2012C45.6117 35.9039 45.4728 36.462 45.4728 37.023H58.0131C57.7355 34.9207 57.0385 33.521 56.0638 32.5379ZM43.8011 17.8215H59.4071V21.6069H43.804V17.8215H43.8011Z" fill="#DDDDDD"/>
</g>
</mask>
<g mask="url(#mask0_358_858)">
<rect x="-18.4414" y="-1.15234" width="102.576" height="48.4068" fill="url(#paint0_linear_358_858)"/>
</g>
<defs>
<linearGradient id="paint0_linear_358_858" x1="32.8467" y1="-1.15234" x2="32.8467" y2="47.2544" gradientUnits="userSpaceOnUse">
<stop stop-color="#363636" stop-opacity="0"/>
<stop offset="0.916667" stop-color="#363636"/>
</linearGradient>
<clipPath id="clip0_358_858">
<rect width="68" height="68" fill="white"/>
</clipPath>
</defs>
</svg>
