<svg width="88" height="88" viewBox="0 0 88 88" fill="none" xmlns="http://www.w3.org/2000/svg">
<mask id="mask0_459_425" style="mask-type:alpha" maskUnits="userSpaceOnUse" x="0" y="0" width="88" height="88">
<g clip-path="url(#clip0_459_425)">
<path d="M27.2903 19.6167C29.6333 19.6167 31.8003 19.8 33.7803 20.3427C35.5771 20.6729 37.2921 21.3504 38.8293 22.3374C40.274 23.243 41.3557 24.5154 42.0743 26.147C42.7967 27.7787 43.156 29.777 43.156 31.9514C43.156 34.4924 42.617 36.6667 41.3557 38.2984C40.274 39.9337 38.47 41.382 36.3067 42.471C39.372 43.3804 41.715 45.012 43.156 47.1864C44.6007 49.3644 45.5027 52.085 45.5027 55.1687C45.5027 57.7097 44.96 59.884 44.058 61.699C43.156 63.514 41.715 65.1457 40.0907 66.2347C38.3262 67.402 36.3758 68.2601 34.323 68.772C32.1597 69.3184 29.9963 69.6814 27.833 69.6814H3.66602V19.6167H27.2903ZM25.8457 39.93C27.8293 39.93 29.4537 39.3874 30.715 38.4817C31.9763 37.576 32.519 35.9407 32.519 33.946C32.519 32.857 32.3357 31.768 31.9763 31.0457C31.617 30.3197 31.0743 29.7734 30.3557 29.2307C29.6333 28.8677 28.911 28.5047 28.009 28.325C27.107 28.1417 26.2087 28.1417 25.1233 28.1417H14.666V39.9337H25.8493L25.8457 39.93ZM26.3883 61.336C27.47 61.336 28.5517 61.1527 29.4537 60.973C30.3644 60.7999 31.2257 60.428 31.9763 59.884C32.7111 59.3532 33.3258 58.6736 33.7803 57.8894C34.1397 56.9837 34.5027 55.8947 34.5027 54.626C34.5027 52.085 33.7803 50.27 32.3393 49.0014C30.8947 47.9124 28.911 47.3697 26.568 47.3697H14.666V61.3397H26.3883V61.336ZM61.1923 61.1527C62.6333 62.6047 64.7967 63.3307 67.6823 63.3307C69.666 63.3307 71.47 62.788 72.911 61.8824C74.3557 60.7934 75.2577 59.7044 75.617 58.6154H84.4537C83.009 62.9677 80.8457 66.0514 77.9637 68.046C75.0743 69.861 71.6497 70.95 67.5027 70.95C64.8494 70.9581 62.2184 70.4655 59.7477 69.498C57.5246 68.664 55.5421 67.2936 53.9763 65.5087C52.3018 63.8388 51.0639 61.7824 50.372 59.521C49.47 57.1634 49.107 54.626 49.107 51.722C49.107 49.0014 49.47 46.464 50.372 44.1027C51.2392 41.8297 52.5225 39.7382 54.156 37.9354C55.7803 36.3037 57.764 34.8554 59.9273 33.946C62.3353 32.9783 64.9076 32.4852 67.5027 32.494C70.568 32.494 73.274 33.0404 75.617 34.309C77.9637 35.5777 79.764 37.0297 81.2087 39.2077C82.6824 41.2996 83.7804 43.6323 84.4537 46.101C84.813 48.6384 84.9927 51.1794 84.813 54.0797H58.666C58.666 56.9837 59.7477 59.7044 61.1923 61.1564V61.1527ZM72.5517 42.108C71.2903 40.8394 69.3067 40.1134 66.96 40.1134C65.5841 40.0927 64.2234 40.4034 62.9927 41.019C61.911 41.5654 61.1923 42.2914 60.47 43.0174C59.8062 43.7186 59.367 44.6022 59.2087 45.5547C59.0253 46.464 58.8457 47.1864 58.8457 47.9124H75.0743C74.715 45.1917 73.813 43.3804 72.5517 42.108ZM56.6823 23.0634H76.8783V27.962H56.686V23.0634H56.6823Z" fill="#DDDDDD"/>
</g>
</mask>
<g mask="url(#mask0_459_425)">
<rect x="-23.8652" y="-1.49121" width="132.746" height="62.6441" fill="url(#paint0_linear_459_425)"/>
</g>
<defs>
<linearGradient id="paint0_linear_459_425" x1="42.5076" y1="-1.49121" x2="42.5076" y2="61.1529" gradientUnits="userSpaceOnUse">
<stop/>
<stop offset="0.921875" stop-color="#1D1E1C" stop-opacity="0"/>
</linearGradient>
<clipPath id="clip0_459_425">
<rect width="88" height="88" fill="white"/>
</clipPath>
</defs>
</svg>
