<svg width="88" height="88" viewBox="0 0 88 88" fill="none" xmlns="http://www.w3.org/2000/svg">
<mask id="mask0_459_431" style="mask-type:alpha" maskUnits="userSpaceOnUse" x="0" y="0" width="88" height="88">
<g clip-path="url(#clip0_459_431)">
<path d="M43.997 69.4437C48.3583 69.4437 52.5409 67.7111 55.6248 64.6273C58.7087 61.5434 60.4412 57.3607 60.4412 52.9994C60.4412 48.6381 58.7087 44.4555 55.6248 41.3716C52.5409 38.2877 48.3583 36.5552 43.997 36.5552C39.6357 36.5552 35.453 38.2877 32.3691 41.3716C29.2852 44.4555 27.5527 48.6381 27.5527 52.9994C27.5527 57.3607 29.2852 61.5434 32.3691 64.6273C35.453 67.7111 39.6357 69.4437 43.997 69.4437V69.4437Z" stroke="#F7F7F7" stroke-width="5" stroke-linecap="round" stroke-linejoin="round"/>
<path d="M7 69.4438V36.5553C7 31.1037 9.16564 25.8754 13.0205 22.0205C16.8754 18.1656 22.1037 16 27.5553 16H60.4438C65.8954 16 71.1237 18.1656 74.9786 22.0205C78.8334 25.8754 80.9991 31.1037 80.9991 36.5553V69.4438C80.9991 74.8954 78.8334 80.1237 74.9786 83.9786C71.1237 87.8334 65.8954 89.9991 60.4438 89.9991H27.5553C22.1037 89.9991 16.8754 87.8334 13.0205 83.9786C9.16564 80.1237 7 74.8954 7 69.4438Z" stroke="#F7F7F7" stroke-width="5"/>
<path d="M66.6133 30.431L66.6544 30.3857" stroke="#F7F7F7" stroke-width="5" stroke-linecap="round" stroke-linejoin="round"/>
</g>
</mask>
<g mask="url(#mask0_459_431)">
<rect x="-23.8652" y="-1.49121" width="132.746" height="62.6441" fill="url(#paint0_linear_459_431)"/>
</g>
<defs>
<linearGradient id="paint0_linear_459_431" x1="42.5076" y1="-1.49121" x2="42.5076" y2="61.1529" gradientUnits="userSpaceOnUse">
<stop/>
<stop offset="0.921875" stop-color="#1D1E1C" stop-opacity="0"/>
</linearGradient>
<clipPath id="clip0_459_431">
<rect width="88" height="88" fill="white"/>
</clipPath>
</defs>
</svg>
