<svg width="297" height="36" viewBox="0 0 297 36" fill="none" xmlns="http://www.w3.org/2000/svg">
<path d="M39.2904 29.3115C39.654 28.8346 40.1369 28.4621 40.6904 28.2315C41.3222 27.9622 42.0038 27.8293 42.6904 27.8415C43.3048 27.8281 43.916 27.9334 44.4904 28.1515C44.9741 28.3363 45.4062 28.6347 45.7504 29.0215C46.0668 29.396 46.2865 29.8423 46.3904 30.3215H44.0004C43.9235 30.0276 43.749 29.7685 43.5055 29.5868C43.2621 29.4051 42.9641 29.3116 42.6604 29.3215C42.4588 29.3127 42.2575 29.3465 42.0697 29.4206C41.882 29.4947 41.7118 29.6074 41.5704 29.7515C41.4329 29.8966 41.3258 30.0679 41.2553 30.255C41.1849 30.4422 41.1527 30.6416 41.1604 30.8415C41.1471 31.2508 41.2942 31.6491 41.5704 31.9515C41.7087 32.0976 41.8765 32.2125 42.0628 32.2883C42.2491 32.3642 42.4495 32.3994 42.6504 32.3915C42.9643 32.403 43.2722 32.3039 43.5204 32.1115C43.7593 31.9364 43.9263 31.6805 43.9904 31.3915H46.3504C46.2704 31.8598 46.0549 32.2944 45.7304 32.6415C45.3751 33.0384 44.9291 33.3437 44.4304 33.5315C43.8676 33.7557 43.2663 33.8678 42.6604 33.8615C41.9737 33.8742 41.2921 33.7413 40.6604 33.4715C40.1063 33.2372 39.6234 32.8613 39.2604 32.3815C38.9326 31.9363 38.7636 31.394 38.7804 30.8415C38.7783 30.2894 38.9574 29.7518 39.2904 29.3115Z" fill="#1D1E1C"/>
<path d="M54.1909 28.0317V29.7717H51.6409V33.6117H49.2909V29.7717H46.7109V28.0317H54.1909Z" fill="#1D1E1C"/>
<path d="M63.4197 28.0317L59.9997 34.8417C59.865 35.0794 59.6762 35.282 59.4486 35.4332C59.221 35.5843 58.961 35.6797 58.6897 35.7117C57.9748 35.8501 57.2479 35.9171 56.5197 35.9117V34.0617C56.7921 34.0734 57.0648 34.0465 57.3297 33.9817C57.4797 33.9817 57.5497 33.8717 57.5497 33.7817C57.5597 33.7356 57.5597 33.6879 57.5497 33.6417L54.6797 28.0317H57.1897L58.9997 32.1517L60.8697 28.0317H63.4197Z" fill="#1D1E1C"/>
<path d="M71.1402 31.9613H72.1402V34.5913H69.7902V33.5913H64.5202V34.5913H62.1602V31.9613H63.1602C63.3753 31.6545 63.5438 31.3175 63.6602 30.9613C63.7599 30.5954 63.8202 30.22 63.8402 29.8413C63.8402 29.4113 63.8402 28.8413 63.8402 28.0713H71.0802L71.1402 31.9613ZM66.1402 29.6013C66.1356 30.0542 66.0921 30.5058 66.0102 30.9513C65.9319 31.3011 65.804 31.6378 65.6302 31.9513H68.7402V29.6113L66.1402 29.6013Z" fill="#1D1E1C"/>
<path d="M74.9402 31.2417L77.9402 28.0317H80.2902V33.6117H77.9202V30.3817L74.9202 33.6117H72.6602V28.0317H74.9402V31.2417Z" fill="#1D1E1C"/>
<path d="M86.4112 33.5915V32.1715H85.0012L83.4412 33.5915H80.9012L82.6312 32.0115C82.129 31.9049 81.6655 31.6628 81.2912 31.3115C81.1333 31.1529 81.0093 30.9638 80.9268 30.7558C80.8443 30.5478 80.805 30.3252 80.8112 30.1015C80.8101 29.7063 80.9563 29.3248 81.2212 29.0315C81.5294 28.7002 81.919 28.4554 82.3512 28.3215C82.8809 28.1313 83.4384 28.0299 84.0012 28.0215H88.6012V33.5915H86.4112ZM83.8112 29.4515C83.6367 29.4619 83.4695 29.5246 83.3312 29.6315C83.264 29.6909 83.2117 29.7653 83.1787 29.8487C83.1457 29.9321 83.1329 30.0222 83.1412 30.1115C83.1335 30.1949 83.1468 30.2789 83.18 30.3557C83.2132 30.4326 83.2652 30.4999 83.3312 30.5515C83.4704 30.6553 83.6377 30.7146 83.8112 30.7215C84.0112 30.7215 84.3212 30.7215 84.7212 30.7215H86.4012V29.4315H84.7212C84.3212 29.4215 84.0012 29.4315 83.8112 29.4515Z" fill="#1D1E1C"/>
<path d="M97.5612 30.5317L100.481 33.6117H97.7412L95.1312 31.0217V33.6117H92.7812V28.0317H95.1312V30.0317L97.4212 28.0317H100.191L97.5612 30.5317Z" fill="#1D1E1C"/>
<path d="M105.83 28.1915C106.378 28.422 106.856 28.7907 107.22 29.2615C107.546 29.7122 107.721 30.2549 107.72 30.8115C107.724 31.367 107.545 31.9084 107.21 32.3515C106.85 32.8282 106.37 33.201 105.82 33.4315C105.188 33.701 104.506 33.8339 103.82 33.8215C103.133 33.8279 102.453 33.6952 101.82 33.4315C101.241 33.1951 100.73 32.8209 100.33 32.3415C99.9679 31.9137 99.7695 31.3716 99.7695 30.8115C99.7695 30.2513 99.9679 29.7093 100.33 29.2815C100.725 28.8016 101.234 28.4271 101.81 28.1915C102.443 27.929 103.124 27.7964 103.81 27.8015C104.503 27.79 105.191 27.9228 105.83 28.1915ZM104.59 32.1915C104.828 32.0798 105.027 31.8985 105.16 31.6715C105.304 31.4133 105.38 31.1223 105.38 30.8265C105.38 30.5306 105.304 30.2396 105.16 29.9815C105.024 29.7541 104.826 29.5702 104.59 29.4515C104.352 29.3388 104.092 29.2807 103.83 29.2815C103.56 29.2838 103.293 29.3453 103.05 29.4615C102.795 29.5777 102.578 29.7609 102.42 29.9915C102.262 30.2416 102.179 30.531 102.179 30.8265C102.179 31.1219 102.262 31.4113 102.42 31.6615C102.58 31.8894 102.797 32.072 103.05 32.1915C103.293 32.3077 103.56 32.3691 103.83 32.3715C104.095 32.3705 104.355 32.3053 104.59 32.1815V32.1915Z" fill="#1D1E1C"/>
<path d="M118.74 28.0317V33.6117H116.39V30.7617L114.61 33.6117H112.46L110.58 30.7617V33.6117H108.23V28.0317H110.92L113.53 31.9817L116.15 28.0317H118.74Z" fill="#1D1E1C"/>
<path d="M119.41 28.0317H126.75V33.6117H124.4V29.6117H121.76V33.6117H119.41V28.0317Z" fill="#1D1E1C"/>
<path d="M134.251 30.0115C134.49 30.1876 134.68 30.4211 134.804 30.6903C134.928 30.9595 134.982 31.2557 134.961 31.5515C134.976 31.8266 134.934 32.1018 134.838 32.36C134.741 32.6181 134.593 32.8535 134.401 33.0515C133.84 33.458 133.151 33.6464 132.461 33.5815H132.041H127.451V28.0015H129.801V29.4615H132.001C132.79 29.4028 133.578 29.5953 134.251 30.0115ZM132.371 32.2215C132.517 32.2006 132.651 32.1299 132.751 32.0215C132.863 31.8759 132.916 31.6942 132.901 31.5115C132.912 31.42 132.903 31.3274 132.875 31.2395C132.848 31.1517 132.802 31.0706 132.741 31.0015C132.639 30.9047 132.51 30.8418 132.371 30.8215C132.148 30.8078 131.924 30.8078 131.701 30.8215H129.781V32.2915H131.781C131.98 32.286 132.177 32.2626 132.371 32.2215Z" fill="#1D1E1C"/>
<path d="M144.36 28.1914C144.905 28.4219 145.381 28.7907 145.74 29.2614C146.071 29.7099 146.246 30.2541 146.24 30.8114C146.248 31.3659 146.072 31.9074 145.74 32.3514C145.384 32.8279 144.908 33.2007 144.36 33.4314C143.728 33.6999 143.046 33.8327 142.36 33.8214C141.76 33.8243 141.165 33.7228 140.6 33.5214C140.078 33.3386 139.599 33.053 139.19 32.6814C138.829 32.3462 138.564 31.922 138.42 31.4514H137.86V33.6114H135.51V28.0214H137.86V29.9114H138.5C138.684 29.4807 138.973 29.1026 139.34 28.8114C139.743 28.4802 140.204 28.226 140.7 28.0614C141.236 27.8885 141.796 27.8008 142.36 27.8014C143.046 27.7902 143.728 27.923 144.36 28.1914ZM143.13 32.1914C143.362 32.0698 143.556 31.8864 143.69 31.6614C143.835 31.4096 143.908 31.1222 143.9 30.8314C143.909 30.6229 143.874 30.4148 143.798 30.2203C143.722 30.0258 143.607 29.8492 143.46 29.7014C143.164 29.4283 142.773 29.2812 142.37 29.2914C142.099 29.2914 141.833 29.353 141.59 29.4714C141.342 29.598 141.129 29.7834 140.97 30.0114C140.801 30.251 140.713 30.5384 140.72 30.8314C140.714 31.1261 140.797 31.4156 140.96 31.6614C141.117 31.889 141.331 32.0717 141.58 32.1914C141.823 32.3189 142.095 32.3841 142.37 32.3814C142.637 32.3777 142.899 32.3054 143.13 32.1714V32.1914Z" fill="#1D1E1C"/>
<path d="M154.201 28.0317V29.7717H151.651V33.6117H149.301V29.7717H146.721V28.0317H154.201Z" fill="#1D1E1C"/>
<path d="M162.41 31.0515H157C157.031 31.45 157.201 31.8251 157.48 32.1115C157.631 32.2516 157.809 32.3601 158.003 32.4305C158.198 32.5009 158.404 32.5318 158.61 32.5215C158.963 32.5223 159.309 32.4254 159.61 32.2415C159.752 32.1481 159.867 32.0202 159.946 31.8697C160.025 31.7192 160.064 31.5512 160.06 31.3815H162.41C162.424 31.7456 162.338 32.1067 162.162 32.4257C161.986 32.7447 161.726 33.0095 161.41 33.1915C160.539 33.6482 159.562 33.8624 158.58 33.8115C157.895 33.817 157.215 33.6879 156.58 33.4315C156.012 33.2114 155.514 32.8417 155.14 32.3615C154.783 31.913 154.592 31.3547 154.6 30.7815C154.593 30.207 154.78 29.647 155.13 29.1915C155.505 28.7142 156.003 28.3478 156.57 28.1315C157.207 27.8806 157.886 27.755 158.57 27.7615C159.255 27.7465 159.936 27.8724 160.57 28.1315C161.101 28.3339 161.565 28.6802 161.91 29.1315C162.235 29.5905 162.41 30.139 162.41 30.7015V30.7515V31.0515ZM157.53 29.2915C157.283 29.497 157.111 29.7781 157.04 30.0915H160.04C159.987 29.7807 159.828 29.4979 159.59 29.2915C159.303 29.0769 158.947 28.9738 158.59 29.0015C158.214 28.9717 157.839 29.0742 157.53 29.2915Z" fill="#1D1E1C"/>
<path d="M170.641 30.9514C170.622 31.4333 170.495 31.9048 170.271 32.3314C170.038 32.7677 169.693 33.1337 169.271 33.3914C168.855 33.6556 168.373 33.7945 167.881 33.7914C166.932 33.8639 165.99 33.5785 165.241 32.9914V35.5514H162.891V28.0314H165.041L165.181 28.7514C165.547 28.4308 165.977 28.1904 166.442 28.0457C166.907 27.9011 167.397 27.8553 167.881 27.9114C168.372 27.9025 168.855 28.0381 169.271 28.3014C169.696 28.5548 170.042 28.9219 170.271 29.3614C170.506 29.8338 170.629 30.3539 170.631 30.8814V30.9514H170.641ZM167.861 31.9514C168.12 31.6628 168.266 31.2896 168.271 30.9014C168.28 30.4794 168.138 30.068 167.871 29.7414C167.632 29.4968 167.318 29.3392 166.979 29.2939C166.64 29.2486 166.295 29.3181 166.001 29.4914C165.781 29.629 165.602 29.8222 165.481 30.0514C165.355 30.2813 165.29 30.5394 165.291 30.8014C165.268 31.2223 165.412 31.6352 165.691 31.9514C165.982 32.2331 166.371 32.3905 166.776 32.3905C167.181 32.3905 167.57 32.2331 167.861 31.9514Z" fill="#1D1E1C"/>
<path d="M176.331 30.0517V28.0517H178.671V33.6317H176.331V31.5317H173.481V33.6117H171.211V28.0317H173.481V30.0317L176.331 30.0517Z" fill="#1D1E1C"/>
<path d="M185.23 28.1915C185.778 28.422 186.257 28.7907 186.62 29.2615C186.946 29.7122 187.121 30.2549 187.12 30.8115C187.124 31.367 186.945 31.9084 186.61 32.3515C186.25 32.8282 185.771 33.201 185.22 33.4315C184.588 33.701 183.907 33.8339 183.22 33.8215C182.534 33.8279 181.853 33.6952 181.22 33.4315C180.642 33.1951 180.13 32.8209 179.73 32.3415C179.368 31.9137 179.17 31.3716 179.17 30.8115C179.17 30.2513 179.368 29.7093 179.73 29.2815C180.126 28.8016 180.634 28.4271 181.21 28.1915C181.844 27.929 182.524 27.7964 183.21 27.8015C183.903 27.79 184.591 27.9228 185.23 28.1915ZM183.99 32.1915C184.228 32.0798 184.427 31.8985 184.56 31.6715C184.697 31.411 184.769 31.121 184.769 30.8265C184.769 30.532 184.697 30.2419 184.56 29.9815C184.424 29.7541 184.227 29.5702 183.99 29.4515C183.752 29.3388 183.493 29.2807 183.23 29.2815C182.96 29.2825 182.693 29.344 182.45 29.4615C182.194 29.575 181.976 29.7588 181.82 29.9915C181.657 30.2394 181.57 30.5297 181.57 30.8265C181.57 31.1232 181.657 31.4135 181.82 31.6615C181.978 31.8917 182.196 32.0748 182.45 32.1915C182.693 32.3089 182.96 32.3704 183.23 32.3715C183.498 32.3721 183.763 32.3068 184 32.1815L183.99 32.1915Z" fill="#1D1E1C"/>
<path d="M189.911 31.2415L192.911 28.0315H195.261V33.6115H192.911V30.3815L189.911 33.6115H187.631V28.0315H189.911V31.2415ZM189.761 27.4515C189.544 27.2891 189.371 27.0751 189.257 26.8289C189.144 26.5827 189.093 26.312 189.111 26.0415H190.451C190.446 26.1639 190.469 26.2858 190.517 26.3983C190.566 26.5107 190.639 26.6109 190.731 26.6915C190.926 26.8641 191.181 26.9538 191.441 26.9415C191.71 26.9544 191.974 26.8651 192.181 26.6915C192.273 26.6109 192.346 26.5107 192.395 26.3983C192.443 26.2858 192.466 26.1639 192.461 26.0415H193.801C193.818 26.312 193.768 26.5827 193.655 26.8289C193.541 27.0751 193.368 27.2891 193.151 27.4515C192.654 27.7799 192.066 27.9443 191.471 27.9215C190.866 27.9466 190.268 27.7823 189.761 27.4515Z" fill="#1D1E1C"/>
<path d="M204.811 28.0317V29.6317H201.881V33.6317H199.371V28.0317H204.811Z" fill="#1D1E1C"/>
<path d="M213.06 30.9514C213.05 31.4333 212.927 31.9059 212.7 32.3314C212.463 32.7646 212.119 33.1297 211.7 33.3914C211.286 33.6567 210.803 33.7956 210.31 33.7914C209.361 33.8639 208.419 33.5785 207.67 32.9914V35.5514H205.32V28.0314H207.48L207.61 28.7514C207.977 28.4308 208.406 28.1904 208.871 28.0457C209.336 27.9011 209.827 27.8553 210.31 27.9114C210.805 27.9023 211.292 28.0378 211.71 28.3014C212.116 28.5638 212.444 28.9298 212.66 29.3614C212.895 29.8338 213.018 30.3539 213.02 30.8814V30.9514H213.06ZM210.28 31.9514C210.543 31.6637 210.692 31.2907 210.7 30.9014C210.702 30.479 210.557 30.0692 210.29 29.7414C210.154 29.5836 209.982 29.4599 209.79 29.38C209.597 29.3002 209.388 29.2664 209.18 29.2814C208.912 29.2788 208.649 29.3516 208.42 29.4914C208.203 29.6318 208.024 29.8243 207.9 30.0514C207.779 30.2831 207.714 30.54 207.71 30.8014C207.692 31.2236 207.839 31.6362 208.12 31.9514C208.41 32.2324 208.797 32.3896 209.2 32.3896C209.604 32.3896 209.991 32.2324 210.28 31.9514Z" fill="#1D1E1C"/>
<path d="M220 28.2813C220.355 28.4042 220.662 28.6393 220.873 28.9512C221.084 29.2632 221.188 29.6351 221.17 30.0113V33.6113H218.94L218.76 32.8813C218.636 33.0597 218.477 33.2111 218.293 33.3263C218.109 33.4415 217.904 33.518 217.69 33.5513C217.102 33.7043 216.497 33.7783 215.89 33.7713C215.355 33.7642 214.828 33.6486 214.34 33.4313C214.076 33.3023 213.859 33.0943 213.719 32.8361C213.579 32.578 213.523 32.2826 213.56 31.9913C213.56 30.8413 214.31 30.2613 215.82 30.2613H217.82C218.077 30.261 218.333 30.224 218.58 30.1513C218.638 30.1308 218.688 30.0929 218.724 30.0428C218.759 29.9927 218.779 29.9328 218.78 29.8713V29.7413C218.78 29.5113 218.62 29.3513 218.33 29.2413C218.008 29.1317 217.67 29.0776 217.33 29.0813C216.984 29.0749 216.641 29.1503 216.33 29.3013C216.234 29.3571 216.154 29.4357 216.097 29.5299C216.039 29.6241 216.006 29.731 216 29.8413H213.64C213.635 29.5998 213.689 29.3608 213.797 29.1448C213.905 28.9288 214.063 28.7422 214.26 28.6013C214.691 28.2797 215.191 28.0608 215.72 27.9613C216.268 27.8437 216.828 27.7834 217.39 27.7813C218.284 27.7701 219.172 27.9402 220 28.2813ZM218.37 31.8913C218.493 31.7833 218.594 31.6515 218.667 31.5038C218.739 31.3561 218.781 31.1954 218.79 31.0313V30.8913C218.388 31.0146 217.969 31.0687 217.55 31.0513C217.136 31.0314 216.722 31.0718 216.32 31.1713C216.216 31.1937 216.124 31.2504 216.056 31.332C215.989 31.4137 215.952 31.5156 215.95 31.6213C215.958 31.7207 215.993 31.816 216.051 31.897C216.109 31.978 216.188 32.0417 216.28 32.0813C216.579 32.1968 216.9 32.2446 217.22 32.2213C217.62 32.2444 218.016 32.1277 218.34 31.8913H218.37Z" fill="#1D1E1C"/>
<path d="M232.3 32.3215C231.865 32.7812 231.322 33.125 230.72 33.3215C229.998 33.5911 229.231 33.7234 228.46 33.7115H228.41V35.2415H226.06V33.7615H226C225.265 33.7592 224.537 33.6237 223.85 33.3615C223.245 33.1605 222.696 32.8177 222.25 32.3615C221.875 31.9633 221.665 31.4383 221.66 30.8915C221.664 30.3603 221.868 29.8499 222.23 29.4615C222.651 29.0133 223.172 28.6707 223.75 28.4615C224.41 28.199 225.11 28.0535 225.82 28.0315H226.07V26.0415H228.42V27.9315H228.47C229.24 27.9294 230.005 28.0614 230.73 28.3215C231.332 28.518 231.875 28.8618 232.31 29.3215C232.688 29.7299 232.897 30.2655 232.897 30.8215C232.897 31.3775 232.688 31.9132 232.31 32.3215H232.3ZM224.3 31.5715C224.531 31.7707 224.805 31.9144 225.1 31.9915C225.425 32.0833 225.762 32.1271 226.1 32.1215V29.5715C225.763 29.5692 225.427 29.6095 225.1 29.6915C224.809 29.7722 224.54 29.9156 224.31 30.1115C224.211 30.2056 224.133 30.3189 224.08 30.4445C224.026 30.57 223.999 30.7051 224 30.8415C223.993 30.9769 224.015 31.1122 224.065 31.2382C224.115 31.3643 224.192 31.4779 224.29 31.5715H224.3ZM228.46 32.1215C228.958 32.1334 229.451 32.0272 229.9 31.8115C230.098 31.7334 230.265 31.5943 230.379 31.4145C230.492 31.2347 230.545 31.0235 230.53 30.8115C230.546 30.6007 230.494 30.3903 230.383 30.2107C230.271 30.031 230.106 29.8913 229.91 29.8115C229.458 29.5957 228.961 29.4895 228.46 29.5015V32.0515V32.1215Z" fill="#1D1E1C"/>
<path d="M235.68 31.2417L238.68 28.0317H241V33.6117H238.65V30.3817L235.65 33.6117H233.4V28.0317H235.68V31.2417Z" fill="#1D1E1C"/>
<path d="M246.46 30.5317L249.38 33.6117H246.64L244 31.0217V33.6117H241.65V28.0317H244V30.0317L246.29 28.0317H249.06L246.46 30.5317Z" fill="#1D1E1C"/>
<path d="M252.001 31.2417L255.001 28.0317H257.351V33.6117H255.001V30.3817L252.001 33.6117H249.721V28.0317H252.001V31.2417Z" fill="#1D1E1C"/>
<path d="M16.09 1.46139V5.33139C16.0927 5.43383 16.0751 5.53579 16.0383 5.63144C16.0016 5.72709 15.9463 5.81457 15.8758 5.88886C15.8052 5.96315 15.7207 6.02281 15.627 6.06443C15.5334 6.10604 15.4324 6.12879 15.33 6.13139H6.57V9.04139H13.64C13.7454 9.04004 13.8501 9.05982 13.9477 9.09955C14.0454 9.13928 14.1341 9.19815 14.2087 9.27271C14.2832 9.34726 14.3421 9.43599 14.3818 9.53366C14.4216 9.63133 14.4413 9.73596 14.44 9.84139V13.7114C14.44 13.816 14.4192 13.9195 14.3789 14.016C14.3386 14.1125 14.2795 14.2001 14.2051 14.2736C14.1307 14.3471 14.0424 14.405 13.9454 14.4441C13.8484 14.4833 13.7446 14.5027 13.64 14.5014H6.57V22.0914C6.56484 22.301 6.47859 22.5005 6.32939 22.6478C6.18019 22.7951 5.97967 22.8789 5.77 22.8814H0.77C0.564787 22.8737 0.370389 22.7874 0.227054 22.6403C0.083718 22.4933 0.00242305 22.2967 0 22.0914L0 1.46139C0 1.25187 0.0832319 1.05093 0.231386 0.902772C0.379539 0.754619 0.580479 0.671387 0.79 0.671387H15.33C15.5351 0.67663 15.7299 0.762492 15.8722 0.910365C16.0144 1.05824 16.0927 1.25621 16.09 1.46139Z" fill="#1D1E1C"/>
<path d="M40.2607 11.7714C40.171 14.8664 38.8784 17.8046 36.6574 19.9621C34.4365 22.1196 31.4621 23.3265 28.3657 23.3265C25.2694 23.3265 22.2949 22.1196 20.074 19.9621C17.853 17.8046 16.5605 14.8664 16.4707 11.7714C16.5605 8.67633 17.853 5.73814 20.074 3.58066C22.2949 1.42317 25.2694 0.216309 28.3657 0.216309C31.4621 0.216309 34.4365 1.42317 36.6574 3.58066C38.8784 5.73814 40.171 8.67633 40.2607 11.7714ZM33.9807 11.7714C33.9807 11.032 33.8351 10.2999 33.5521 9.61687C33.2692 8.93381 32.8545 8.31316 32.3317 7.79037C31.8089 7.26758 31.1883 6.85287 30.5052 6.56994C29.8221 6.287 29.09 6.14138 28.3507 6.14138C27.6114 6.14138 26.8793 6.287 26.1962 6.56994C25.5131 6.85287 24.8925 7.26758 24.3697 7.79037C23.8469 8.31316 23.4322 8.93381 23.1493 9.61687C22.8663 10.2999 22.7207 11.032 22.7207 11.7714C22.7207 12.5107 22.8663 13.2428 23.1493 13.9259C23.4322 14.609 23.8469 15.2296 24.3697 15.7524C24.8925 16.2752 25.5131 16.6899 26.1962 16.9728C26.8793 17.2558 27.6114 17.4014 28.3507 17.4014C29.09 17.4014 29.8221 17.2558 30.5052 16.9728C31.1883 16.6899 31.8089 16.2752 32.3317 15.7524C32.8545 15.2296 33.2692 14.609 33.5521 13.9259C33.8351 13.2428 33.9807 12.5107 33.9807 11.7714Z" fill="#1D1E1C"/>
<path d="M59.3302 22.8414H53.7202C53.4673 22.826 53.2227 22.7451 53.0106 22.6066C52.7984 22.4681 52.626 22.2767 52.5102 22.0514L49.2102 16.0514H47.5002V22.0514C47.5002 22.156 47.4794 22.2595 47.4391 22.356C47.3988 22.4525 47.3397 22.5401 47.2652 22.6136C47.1908 22.6871 47.1026 22.745 47.0055 22.7841C46.9085 22.8233 46.8047 22.8427 46.7002 22.8414H41.7002C41.4906 22.8414 41.2897 22.7582 41.1415 22.61C40.9934 22.4618 40.9102 22.2609 40.9102 22.0514V1.46139C40.9102 1.25187 40.9934 1.05093 41.1415 0.902772C41.2897 0.754619 41.4906 0.671387 41.7002 0.671387H50.7002C55.8702 0.671387 59.0002 3.71139 59.0002 8.44139C59.077 9.69756 58.8194 10.9516 58.2538 12.0759C57.6881 13.2001 56.8346 14.1544 55.7802 14.8414C57.3002 17.4114 59.6502 21.5014 59.9002 21.8414C60.1502 22.1814 60.0902 22.8414 59.3302 22.8414ZM50.5102 5.93139H47.5102V10.8414H50.5902C51.2394 10.8469 51.8649 10.5976 52.3323 10.1469C52.7998 9.69634 53.0719 9.08039 53.0902 8.43139C53.0863 8.09743 53.0163 7.76754 52.8843 7.46076C52.7522 7.15398 52.5608 6.87638 52.3209 6.64396C52.0811 6.41155 51.7976 6.22892 51.4868 6.10662C51.176 5.98432 50.8441 5.92476 50.5102 5.93139Z" fill="#1D1E1C"/>
<path d="M85.6709 1.46117V22.0912C85.6658 22.3008 85.5795 22.5002 85.4303 22.6476C85.2811 22.7949 85.0806 22.8786 84.8709 22.8812H79.8709C79.6622 22.8786 79.4628 22.7945 79.3152 22.6469C79.1676 22.4993 79.0835 22.2999 79.0809 22.0912V12.2812C79.0809 12.2812 76.0009 16.8412 75.4509 17.5812C74.8509 18.5012 74.4509 18.4012 74.2409 18.4012H72.1809C71.9309 18.4012 71.5809 18.5012 70.9809 17.5812C70.4409 16.8212 67.2909 12.2812 67.2909 12.2812V22.0912C67.2923 22.1953 67.2728 22.2986 67.2335 22.3951C67.1943 22.4915 67.1362 22.5791 67.0625 22.6528C66.9889 22.7264 66.9013 22.7845 66.8048 22.8238C66.7084 22.863 66.6051 22.8825 66.5009 22.8812H61.5009C61.2914 22.8812 61.0905 22.7979 60.9423 22.6498C60.7942 22.5016 60.7109 22.3007 60.7109 22.0912V1.46117C60.7135 1.25245 60.7976 1.05302 60.9452 0.905421C61.0928 0.757826 61.2922 0.673761 61.5009 0.671168H65.3009C65.5372 0.666391 65.7704 0.725113 65.9762 0.841207C66.182 0.957301 66.3528 1.12651 66.4709 1.33117L73.2009 10.6012L80.0009 1.33117C80.1157 1.13242 80.2802 0.96702 80.4784 0.85128C80.6766 0.73554 80.9015 0.673462 81.1309 0.671168H84.8709C85.0791 0.67846 85.2769 0.763739 85.4251 0.910081C85.5733 1.05642 85.661 1.25313 85.6709 1.46117Z" fill="#1D1E1C"/>
<path d="M106.699 1.46116V12.4612C106.699 20.6212 102.319 23.2212 96.6992 23.2212C91.0792 23.2212 86.6992 20.6212 86.6992 12.4612V1.46116C86.6992 1.25164 86.7825 1.0507 86.9306 0.902542C87.0788 0.754389 87.2797 0.671157 87.4892 0.671157H92.4892C92.6943 0.6764 92.8891 0.762262 93.0314 0.910135C93.1737 1.05801 93.2519 1.25598 93.2492 1.46116V13.5512C93.2492 16.6612 94.5192 17.6412 96.7392 17.6412C98.9592 17.6412 100.199 16.6412 100.199 13.5512V1.46116C100.198 1.35618 100.218 1.25201 100.258 1.15488C100.297 1.05775 100.356 0.969664 100.431 0.895897C100.506 0.822131 100.595 0.764204 100.692 0.725586C100.79 0.686969 100.894 0.668456 100.999 0.671157H105.999C106.193 0.693348 106.371 0.78628 106.501 0.932098C106.63 1.07792 106.7 1.26634 106.699 1.46116Z" fill="#1D1E1C"/>
<path d="M124.691 18.2115V22.0915C124.691 22.301 124.608 22.5019 124.459 22.6501C124.311 22.7982 124.11 22.8815 123.901 22.8815H108.511C108.407 22.8828 108.303 22.8633 108.207 22.8241C108.11 22.7848 108.023 22.7267 107.949 22.6531C107.876 22.5794 107.817 22.4918 107.778 22.3954C107.739 22.2989 107.719 22.1956 107.721 22.0915V1.46145C107.719 1.35734 107.739 1.254 107.778 1.15755C107.817 1.0611 107.876 0.973471 107.949 0.899843C108.023 0.826216 108.11 0.768075 108.207 0.72885C108.303 0.689624 108.407 0.670108 108.511 0.671452H113.511C113.716 0.676695 113.911 0.762557 114.053 0.91043C114.195 1.0583 114.273 1.25628 114.271 1.46145V17.4615H123.921C124.12 17.4662 124.31 17.5462 124.453 17.6853C124.596 17.8244 124.681 18.0124 124.691 18.2115Z" fill="#1D1E1C"/>
<path d="M146.999 22.8413H141.819C140.869 22.8413 140.749 22.5213 140.399 21.7013C140.329 21.5413 140.109 20.9013 139.789 19.8913H132.939C132.619 20.8913 132.399 21.5413 132.339 21.7013C132.019 22.5213 131.859 22.8413 130.909 22.8413H125.769C125.229 22.8413 124.909 22.4313 125.199 21.7313C125.489 21.0313 132.459 1.96135 132.719 1.42135C132.979 0.881348 133.129 0.631348 133.719 0.631348H138.999C139.569 0.631348 139.759 0.881348 139.999 1.42135C140.239 1.96135 147.229 21.0313 147.519 21.7313C147.809 22.4313 147.539 22.8413 146.999 22.8413ZM138.049 14.4313C137.509 12.7213 136.939 10.9113 136.369 9.16135C135.829 10.9113 135.259 12.7213 134.679 14.4313H138.049Z" fill="#1D1E1C"/>
<path d="M161.12 1.1615C163.505 1.11259 165.871 1.59063 168.05 2.5615C169.884 3.37732 171.455 4.68583 172.59 6.3415C173.656 7.97501 174.206 9.89124 174.17 11.8415C174.193 13.7618 173.642 15.6453 172.59 17.2515C171.459 18.9068 169.891 20.2155 168.06 21.0315C165.888 22.0036 163.528 22.4818 161.15 22.4315H160.65H155.65H149.73V1.1615H161.09M156.18 17.4415H161.3C162.954 17.501 164.583 17.0201 165.94 16.0715C166.58 15.5755 167.09 14.9313 167.426 14.1945C167.763 13.4576 167.915 12.6502 167.87 11.8415C167.876 10.7974 167.551 9.77824 166.94 8.9315C166.31 8.07178 165.475 7.38406 164.51 6.9315C163.509 6.45005 162.411 6.20378 161.3 6.2115H156.18V17.4415ZM161.12 0.661499H149.26V22.8915H155.18H161.18C163.63 22.9447 166.062 22.4529 168.3 21.4515C170.221 20.5894 171.861 19.203 173.03 17.4515C174.123 15.7866 174.694 13.8331 174.67 11.8415C174.712 9.79323 174.129 7.78069 173 6.0715C171.827 4.31964 170.184 2.93344 168.26 2.0715C166.013 1.08136 163.575 0.599884 161.12 0.661499ZM156.68 16.9415V6.6415H161.3C162.338 6.63113 163.365 6.86041 164.3 7.3115C165.194 7.73338 165.965 8.37716 166.54 9.1815C167.091 9.94322 167.386 10.861 167.38 11.8015C167.433 12.5367 167.304 13.2737 167.003 13.947C166.703 14.6204 166.242 15.2093 165.66 15.6615C164.389 16.5535 162.861 17.0033 161.31 16.9415H156.68Z" fill="#1D1E1C"/>
<path d="M199.16 1.16162V5.54162H182.76V9.48162H196.64V13.7416H182.76V18.1416H183.27L199.16 18.0316V22.4016H176.34V1.16162H199.16ZM199.66 0.661621H175.84V22.8916H199.66V17.5116L183.26 17.6316V14.2416H197.14V8.98162H183.26V6.04162H199.69V0.661621H199.66Z" fill="#1D1E1C"/>
<path d="M214.229 0.501429C217.304 0.469409 220.358 1.01906 223.229 2.12143C224.356 2.50255 225.334 3.22977 226.024 4.19942C226.713 5.16907 227.079 6.33165 227.069 7.52143H220.499C220.39 7.01821 220.154 6.5515 219.812 6.1662C219.47 5.7809 219.036 5.48998 218.549 5.32143C217.171 4.77167 215.703 4.48015 214.219 4.46143C212.673 4.42736 211.131 4.63658 209.649 5.08143C207.869 5.67143 207.499 6.70143 207.499 7.45143C207.499 8.20143 207.889 9.29143 209.709 9.74143C211.109 10.0646 212.542 10.2191 213.979 10.2014H217.249C218.944 10.1849 220.638 10.3188 222.309 10.6014C223.589 10.8073 224.787 11.3647 225.769 12.2114C226.23 12.6579 226.587 13.2 226.815 13.7997C227.043 14.3993 227.137 15.0417 227.089 15.6814C227.189 16.9392 226.868 18.1944 226.176 19.2498C225.485 20.3051 224.462 21.1007 223.269 21.5114C220.37 22.6113 217.289 23.1542 214.189 23.1114C211.051 23.1188 207.937 22.5564 204.999 21.4514C203.847 21.0931 202.839 20.3779 202.12 19.409C201.401 18.4402 201.008 17.2679 200.999 16.0614H207.669C207.713 16.6745 207.951 17.2578 208.348 17.7269C208.746 18.196 209.282 18.5268 209.879 18.6714C211.358 19.0749 212.886 19.2668 214.419 19.2414C215.872 19.2749 217.318 19.0305 218.679 18.5214C219.265 18.3402 219.776 17.9745 220.136 17.4788C220.497 16.9832 220.687 16.3842 220.679 15.7714C220.67 15.3698 220.532 14.9818 220.285 14.6648C220.038 14.3478 219.696 14.1187 219.309 14.0114C218.541 13.7112 217.732 13.5291 216.909 13.4714C216.099 13.4114 215.119 13.3714 213.989 13.3514H211.739C209.881 13.3693 208.025 13.2355 206.189 12.9514C204.803 12.7435 203.5 12.1628 202.419 11.2714C201.914 10.8037 201.522 10.228 201.271 9.58729C201.02 8.94662 200.917 8.25753 200.969 7.57143C200.969 4.66143 202.239 2.81143 204.849 1.93143C207.899 0.95655 211.087 0.483723 214.289 0.531429M214.289 0.031429C211.033 -0.0161448 207.79 0.466842 204.689 1.46143C201.842 2.38143 200.416 4.4081 200.409 7.54143C200.352 8.29716 200.465 9.05615 200.74 9.76233C201.015 10.4685 201.445 11.1039 201.999 11.6214C203.143 12.5738 204.527 13.1931 205.999 13.4114C207.865 13.7036 209.751 13.8407 211.639 13.8214H213.889C215.009 13.8214 215.969 13.8614 216.769 13.9414C217.544 13.9962 218.306 14.1681 219.029 14.4514C219.32 14.5245 219.579 14.6896 219.768 14.922C219.958 15.1545 220.067 15.4419 220.079 15.7414C220.077 16.2499 219.911 16.7441 219.604 17.1498C219.298 17.5555 218.868 17.8508 218.379 17.9914C217.079 18.481 215.697 18.7153 214.309 18.6814C212.824 18.7085 211.342 18.5233 209.909 18.1314C209.332 17.9922 208.824 17.6497 208.479 17.1667C208.134 16.6837 207.974 16.0926 208.029 15.5014H200.369C200.284 16.8944 200.667 18.2759 201.457 19.4264C202.247 20.5769 203.398 21.4304 204.729 21.8514C207.753 22.9855 210.96 23.5516 214.189 23.5214C217.355 23.5667 220.501 23.0102 223.459 21.8814C224.744 21.4338 225.845 20.5747 226.592 19.4374C227.338 18.3002 227.689 16.9483 227.589 15.5914C227.626 14.8994 227.515 14.2075 227.266 13.5612C227.016 12.9149 226.632 12.3288 226.139 11.8414C225.09 10.9345 223.809 10.3388 222.439 10.1214C220.738 9.83038 219.015 9.69316 217.289 9.71143H214.019C212.623 9.72725 211.23 9.57618 209.869 9.26143C208.622 8.98143 207.999 8.3781 207.999 7.45143C207.999 6.52476 208.599 5.89476 209.799 5.56143C211.232 5.1295 212.723 4.927 214.219 4.96143C215.635 4.97757 217.035 5.25559 218.349 5.78143C218.832 5.92854 219.256 6.22421 219.561 6.62637C219.867 7.02853 220.037 7.5167 220.049 8.02143H227.589C227.69 6.64769 227.335 5.27893 226.58 4.12728C225.824 2.97564 224.71 2.1054 223.409 1.65143C220.48 0.527646 217.366 -0.0321893 214.229 0.00142899L214.289 0.031429Z" fill="#1D1E1C"/>
<path d="M235.719 1.16162V22.3916H229.299V1.16162H235.719ZM236.219 0.661621H228.799V22.8916H236.219V0.661621Z" fill="#1D1E1C"/>
<path d="M252.259 0.591267C254.477 0.55562 256.684 0.893682 258.789 1.59127C260.59 2.20301 262.221 3.23084 263.549 4.59127C264.632 5.70989 265.41 7.08692 265.809 8.59127H259.059C258.568 7.46152 257.663 6.56312 256.529 6.08127C255.192 5.50168 253.747 5.21199 252.289 5.23127C251.043 5.21581 249.808 5.48246 248.679 6.01127C247.607 6.51147 246.697 7.30114 246.049 8.29127C245.383 9.32508 245.036 10.5316 245.049 11.7613C245.011 12.9726 245.335 14.1678 245.98 15.1939C246.625 16.22 247.561 17.0303 248.669 17.5213C249.794 18.029 251.016 18.285 252.249 18.2713C253.493 18.2808 254.726 18.0322 255.869 17.5413C256.963 17.0853 257.904 16.3253 258.579 15.3513L259.109 14.5713H252.839V11.5713H265.999V13.6913V22.3213H262.199L261.739 20.9513L261.539 20.3513L261.009 20.6813C258.358 22.2272 255.328 23.003 252.259 22.9213C249.734 22.9539 247.232 22.4458 244.919 21.4313C242.883 20.5656 241.105 19.1876 239.759 17.4313C238.542 15.7879 237.884 13.7967 237.884 11.7513C237.884 9.70587 238.542 7.71462 239.759 6.07127C241.112 4.31321 242.896 2.93518 244.939 2.07127C247.248 1.06991 249.743 0.56565 252.259 0.591267ZM252.259 0.0912668C249.676 0.0589591 247.116 0.57712 244.749 1.61127C242.614 2.5213 240.758 3.9808 239.369 5.84127C238.059 7.56598 237.356 9.67544 237.369 11.8413C237.36 13.9911 238.064 16.0833 239.369 17.7913C240.757 19.639 242.605 21.0905 244.729 22.0013C247.104 23.0454 249.675 23.5672 252.269 23.5313C255.426 23.612 258.542 22.8121 261.269 21.2213L261.839 22.9313H266.489V13.8013V11.1413H252.379V15.1413H258.199C257.579 16.0331 256.714 16.7274 255.709 17.1413C254.629 17.6053 253.465 17.8402 252.289 17.8313C251.128 17.8471 249.978 17.6082 248.919 17.1313C247.926 16.686 247.083 15.9638 246.489 15.0513C245.873 14.0887 245.56 12.9637 245.589 11.8213C245.559 10.7116 245.856 9.61747 246.442 8.67511C247.029 7.73274 247.88 6.98372 248.889 6.52127C249.953 6.02319 251.115 5.77356 252.289 5.79127C253.665 5.77515 255.028 6.05124 256.289 6.60127C256.844 6.83321 257.343 7.18054 257.754 7.62019C258.164 8.05984 258.476 8.58175 258.669 9.15127H266.389C266.043 7.3139 265.167 5.61781 263.869 4.27127C262.472 2.86059 260.758 1.80455 258.869 1.19127C256.708 0.484091 254.443 0.146028 252.169 0.191267L252.259 0.0912668Z" fill="#1D1E1C"/>
<path d="M295.579 1.16162V22.3916H288.899L275.469 8.93162L274.609 8.07162V22.3916H268.199V1.16162H274.909L288.339 14.6216L289.189 15.4816V1.16162H295.579ZM296.079 0.661621H288.689V14.2716L275.109 0.661621H267.699V22.8916H275.109V9.28162L288.689 22.8916H296.079V0.661621Z" fill="#1D1E1C"/>
</svg>
