<svg width="107" height="18" viewBox="0 0 107 18" fill="none" xmlns="http://www.w3.org/2000/svg">
<path d="M107 17.5C107 17.2239 106.776 17 106.5 17H9C4.58172 17 1 13.4183 1 9C1 4.58172 4.58172 1 9 1H26.5C26.7761 1 27 0.776142 27 0.5C27 0.223858 26.7761 0 26.5 0H9C4.02944 0 0 4.02944 0 9C0 13.9706 4.02944 18 9 18H106.5C106.776 18 107 17.7761 107 17.5Z" fill="url(#paint0_linear_459_376)"/>
<defs>
<linearGradient id="paint0_linear_459_376" x1="-3.30173e-07" y1="9.42857" x2="107" y2="9.00003" gradientUnits="userSpaceOnUse">
<stop stop-color="#419BEF"/>
<stop offset="0.473958" stop-color="#6B41EF"/>
<stop offset="1" stop-color="#4152EF"/>
</linearGradient>
</defs>
</svg>
