<svg width="133" height="18" viewBox="0 0 133 18" fill="none" xmlns="http://www.w3.org/2000/svg">
<path d="M133 17.5C133 17.2239 132.776 17 132.5 17H9C4.58172 17 1 13.4183 1 9C1 4.58172 4.58172 1 9 1H26.5C26.7761 1 27 0.776142 27 0.5C27 0.223858 26.7761 0 26.5 0H9C4.02944 0 0 4.02944 0 9C0 13.9706 4.02944 18 9 18H132.5C132.776 18 133 17.7761 133 17.5Z" fill="url(#paint0_linear_459_375)"/>
<defs>
<linearGradient id="paint0_linear_459_375" x1="-4.84372e-07" y1="9.42858" x2="133" y2="9.42859" gradientUnits="userSpaceOnUse">
<stop stop-color="#EF4141"/>
<stop offset="0.473958" stop-color="#C241EF"/>
<stop offset="1" stop-color="#6B41EF"/>
</linearGradient>
</defs>
</svg>
