<svg width="15" height="16" viewBox="0 0 15 16" fill="none" xmlns="http://www.w3.org/2000/svg">
<path d="M3.00002 9.9398V6.05312C3.00109 5.70224 3.18498 5.37703 3.4851 5.19528L6.6851 3.27525H6.68523C6.7826 3.219 6.88894 3.17976 6.9997 3.1594V0H6.85854C6.55867 0 6.26484 0.0842412 6.01051 0.243219L0.752033 3.53C0.284198 3.82237 0 4.33517 0 4.88684V11.1132C0.0034821 11.3394 0.0553137 11.5623 0.152011 11.7668L3.02279 10.1092C3.01034 10.0535 3.0027 9.99688 3.00003 9.93982L3.00002 9.9398Z" fill="#9B00FF"/>
<path d="M3.40054 6.05291V9.93959C3.40067 10.1531 3.51425 10.3505 3.69854 10.458L6.89853 12.319L6.89867 12.3189C6.93162 12.3312 6.96577 12.3404 7.00059 12.3464V8.04215L3.42557 5.95752C3.41445 5.98846 3.40602 6.02033 3.40039 6.05261L3.40054 6.05291Z" fill="#9B00FF"/>
<path d="M7.71476 3.27541L10.9148 5.19543H10.9149C11.2153 5.37705 11.3993 5.70208 11.4004 6.05314V9.93982C11.3978 9.99687 11.3903 10.0535 11.3779 10.1092L14.2484 11.7668C14.3451 11.5623 14.397 11.3394 14.4004 11.1132V4.88684C14.4004 4.33517 14.1162 3.82235 13.6484 3.53L8.38959 0.243219C8.13538 0.0842447 7.84156 0 7.54169 0H7.40039V3.1594C7.51102 3.18003 7.61736 3.21914 7.71486 3.27539L7.71476 3.27541Z" fill="#9B00FF"/>
<path d="M10.9035 10.8045L7.70354 12.6654V12.6653C7.55072 12.7539 7.37728 12.8005 7.20076 12.8005C7.02425 12.8005 6.85081 12.7539 6.69799 12.6653L3.49799 10.8043V10.8045C3.36554 10.7252 3.2533 10.6162 3.17053 10.4858L0.361328 12.1079C0.470348 12.2499 0.602672 12.3724 0.752671 12.4702L6.01149 15.7569C6.26582 15.9159 6.55965 16.0001 6.85952 16.0001H7.54188C7.84175 16.0001 8.13558 15.9159 8.38978 15.7569L13.6486 12.4702C13.7986 12.3724 13.9309 12.2498 14.0399 12.1079L11.2309 10.486L11.2307 10.4858C11.148 10.6162 11.0357 10.7252 10.9033 10.8045L10.9035 10.8045Z" fill="#9B00FF"/>
<path d="M7.40039 8.04304V12.3473C7.43521 12.3413 7.46936 12.3321 7.50231 12.3197L10.7023 10.4588L10.7024 10.4589C10.8867 10.3512 11.0003 10.154 11.0004 9.94048V6.05345C10.9948 6.02117 10.9864 5.9893 10.9753 5.9585L7.40039 8.04304Z" fill="#9B00FF"/>
<path d="M10.708 5.53819L7.50842 3.61816C7.41507 3.56231 7.30833 3.53271 7.19944 3.53271C7.09056 3.53271 6.98381 3.56231 6.89047 3.61816L3.69047 5.53819C3.66127 5.55573 3.64654 5.58761 3.62109 5.60957L7.19954 7.69647L10.7777 5.60985C10.7521 5.58775 10.7373 5.55574 10.708 5.5382V5.53819Z" fill="#9B00FF"/>
</svg>
