<svg width="26" height="16" viewBox="0 0 26 16" fill="none" xmlns="http://www.w3.org/2000/svg">
<path d="M24.3654 1.48921H20.0338C19.2757 1.48921 18.6802 2.11183 18.6802 2.84282V7.17448C18.6802 7.93251 19.3028 8.5281 20.0338 8.5281H21.3062C21.3062 9.3131 20.6564 9.96293 19.8713 9.96293L13.7259 9.96274V7.03893H15.0253C15.7834 7.03893 16.379 6.41632 16.379 5.68532V1.35366C16.379 0.595638 15.7563 4.83168e-05 15.0253 4.83168e-05L10.6937 0.000237158C9.93567 0.000237158 9.34008 0.622851 9.34008 1.35385V5.68551C9.34008 6.44353 9.96269 7.03912 10.6937 7.03912H11.9931V9.96293L5.84771 9.96274C5.06271 9.96274 4.41288 9.31296 4.41288 8.52791H5.68527C6.4433 8.52791 7.03889 7.9053 7.03889 7.1743V2.84264C7.03889 2.08461 6.41627 1.48902 5.68527 1.48902H1.35361C0.59559 1.48902 0 2.11164 0 2.84264V7.1743C0 7.93232 0.622614 8.52791 1.35361 8.52791H2.6802C2.6802 10.2875 4.11503 11.6954 5.84766 11.6954H11.9931V15.1336C11.9931 15.6208 12.3721 16 12.8595 16C13.3467 16 13.7259 15.621 13.7259 15.1336L13.7257 11.7224H19.8711C21.6307 11.7224 23.0386 10.2876 23.0386 8.55493H24.3651C25.1232 8.55493 25.7188 7.93232 25.7188 7.20132V2.86966C25.7186 2.11183 25.0964 1.48921 24.3654 1.48921ZM3.49271 5.68527L2.59947 6.57865C2.51827 6.65985 2.38287 6.71405 2.24747 6.71405C2.11208 6.71405 2.00387 6.65985 1.89547 6.57865C1.70588 6.38905 1.70588 6.09145 1.89547 5.90185L2.78886 5.00846L1.89547 4.11508C1.70588 3.92548 1.70588 3.62787 1.89547 3.43827C2.08507 3.24867 2.38268 3.24867 2.57228 3.43827L3.46567 4.33165L4.35905 3.43827C4.54865 3.24867 4.84626 3.24867 5.03586 3.43827C5.22546 3.62787 5.22546 3.92547 5.03586 4.11508L4.14247 5.00846L5.03586 5.90185C5.22546 6.09144 5.22546 6.38905 5.03586 6.57865C4.95466 6.65985 4.81925 6.71405 4.68386 6.71405C4.54846 6.71405 4.44025 6.65985 4.33186 6.57865L3.49271 5.68527ZM12.7514 5.25206C12.6702 5.36027 12.5348 5.41447 12.3724 5.41447C12.237 5.41447 12.1016 5.36027 11.9934 5.25206L10.9646 3.97967C10.8022 3.76306 10.8292 3.46525 11.0188 3.30286C11.2354 3.14046 11.5332 3.16746 11.6956 3.35706L12.3724 4.19625L13.9969 2.22002C14.1593 2.00342 14.4571 1.97642 14.6737 2.16583C14.8903 2.32823 14.9173 2.62603 14.7279 2.84263L12.7514 5.25206ZM23.7698 5.90189C23.9594 6.09149 23.9594 6.3891 23.7698 6.5787C23.6886 6.6599 23.5532 6.7141 23.4178 6.7141C23.2824 6.7141 23.1742 6.6599 23.0658 6.5787L22.1725 5.68532L21.2792 6.5787C21.198 6.6599 21.0626 6.7141 20.9272 6.7141C20.7918 6.7141 20.6836 6.6599 20.5752 6.5787C20.3856 6.3891 20.3856 6.0915 20.5752 5.90189L21.4686 5.00851L20.5752 4.11512C20.3856 3.92553 20.3856 3.62792 20.5752 3.43832C20.7648 3.24872 21.0624 3.24872 21.252 3.43832L22.1454 4.3317L23.0388 3.43832C23.2284 3.24872 23.526 3.24872 23.7156 3.43832C23.9052 3.62792 23.9052 3.92552 23.7156 4.11512L22.8222 5.00851L23.7698 5.90189Z" fill="#419BEF"/>
</svg>
