<svg width="16" height="16" viewBox="0 0 16 16" fill="none" xmlns="http://www.w3.org/2000/svg">
<path d="M9.66722 8.00012C9.66722 8.92054 8.92103 9.66674 8.0006 9.66674C7.08018 9.66674 6.33398 8.92054 6.33398 8.00012C6.33398 7.07969 7.08018 6.3335 8.0006 6.3335C8.92103 6.3335 9.66722 7.07969 9.66722 8.00012Z" fill="#419BEF"/>
<path d="M13.7526 8.66675H8.83267C8.5945 8.66675 8.37441 8.53974 8.25533 8.33349C8.13624 8.12724 8.13624 7.87301 8.25533 7.66675C8.37441 7.4605 8.5945 7.3335 8.83267 7.3335H13.7526C13.9908 7.3335 14.2109 7.4605 14.33 7.66675C14.4491 7.873 14.4491 8.12723 14.33 8.33349C14.2109 8.53975 13.9908 8.66675 13.7526 8.66675Z" fill="#419BEF"/>
<path d="M7.58558 7.94665C7.46806 7.9471 7.35255 7.91652 7.25064 7.85804C7.14886 7.79944 7.06426 7.71507 7.00555 7.61328L4.62554 3.48673C4.5281 3.33339 4.49741 3.14688 4.5406 2.97045C4.58379 2.794 4.69719 2.64277 4.85454 2.55182C5.0118 2.46098 5.1994 2.43821 5.37386 2.48877C5.54841 2.53944 5.69463 2.65908 5.77888 2.82002L8.1589 6.94C8.23736 7.07605 8.26537 7.23543 8.23792 7.39C8.21046 7.54469 8.12921 7.68463 8.00868 7.7852C7.88814 7.88587 7.73591 7.94067 7.57888 7.94L7.58558 7.94665Z" fill="#419BEF"/>
<path d="M5.29431 13.3335C5.13728 13.3341 4.98505 13.2793 4.86451 13.1786C4.74397 13.0781 4.66272 12.9381 4.63527 12.7834C4.60781 12.6289 4.63583 12.4695 4.71429 12.3336L7.00099 8.367V8.36689C7.08525 8.20595 7.23146 8.08631 7.40602 8.03564C7.58046 7.98508 7.76807 8.00785 7.92533 8.0988C8.08269 8.18965 8.19597 8.34088 8.23927 8.51732C8.28246 8.69377 8.25177 8.88026 8.15433 9.0336L5.87432 13.0201C5.74976 13.2196 5.52935 13.3387 5.29429 13.3335L5.29431 13.3335Z" fill="#419BEF"/>
<path d="M15.4 6.80667L14.5334 6.71995C14.4757 6.42164 14.3978 6.12767 14.3 5.83993L15.0067 5.33336C15.1403 5.2366 15.2333 5.09385 15.2678 4.93259C15.3023 4.77121 15.2757 4.6029 15.1933 4.46005L14.6666 3.53997C14.5838 3.39655 14.4505 3.28919 14.2927 3.23863C14.135 3.18807 13.964 3.19811 13.8132 3.26664L13.0265 3.61998H13.0266C12.8204 3.38237 12.5976 3.15961 12.36 2.95336L12.7134 2.16664H12.7133C12.778 2.02044 12.788 1.85593 12.7415 1.70293C12.6951 1.54992 12.5951 1.41878 12.46 1.33339L11.5401 0.800023H11.5399C11.3963 0.718215 11.2274 0.69277 11.0661 0.728484C10.9047 0.764198 10.7624 0.858617 10.6666 0.993325L10.1599 1.70001H10.1601C9.87234 1.60224 9.57838 1.52434 9.28003 1.46664L9.19331 0.600013C9.1768 0.434948 9.09923 0.282043 8.97602 0.171101C8.85269 0.0601643 8.69253 -0.000772576 8.52668 7.41989e-06H7.46662C7.30078 -0.000773833 7.14063 0.0601643 7.01728 0.171101C6.89407 0.282037 6.81662 0.43494 6.79998 0.600013L6.71326 1.46664C6.41504 1.52434 6.12098 1.60224 5.83335 1.70001L5.33336 0.993325C5.2366 0.859732 5.09385 0.766652 4.93259 0.732167C4.77121 0.697681 4.6029 0.724243 4.46005 0.80672L3.53997 1.3334C3.39655 1.41621 3.28919 1.54947 3.23863 1.70729C3.18807 1.86499 3.19811 2.03597 3.26664 2.18674L3.61998 2.97345V2.97334C3.38237 3.17959 3.15961 3.40237 2.95335 3.63997L2.18673 3.26665C2.03595 3.19813 1.86496 3.18808 1.70728 3.23864C1.54946 3.2892 1.41619 3.39656 1.33339 3.53998L0.800023 4.45995V4.46006C0.718215 4.6037 0.692769 4.77257 0.728483 4.93394C0.764198 5.09531 0.858617 5.23763 0.993325 5.33337L1.70001 5.84005V5.83994C1.60224 6.12765 1.52434 6.42162 1.46664 6.71996L0.600013 6.80668C0.434948 6.8232 0.282043 6.90077 0.171101 7.02398C0.0601642 7.14731 -0.000772576 7.30747 7.4199e-06 7.47332V8.53338C-0.000773833 8.69922 0.0601642 8.85937 0.171101 8.98272C0.282037 9.10593 0.434939 9.18338 0.600013 9.20002L1.46664 9.28673C1.52434 9.58496 1.60224 9.87902 1.70001 10.1666L0.993325 10.6666C0.859731 10.7634 0.766652 10.9061 0.732166 11.0674C0.697681 11.2288 0.724243 11.3971 0.80672 11.54L1.3334 12.46C1.41621 12.6034 1.54947 12.7108 1.70729 12.7614C1.86499 12.8119 2.03597 12.8019 2.18674 12.7334L2.97345 12.38H2.97334C3.17959 12.6176 3.40237 12.8404 3.63997 13.0466L3.26665 13.8133C3.19813 13.964 3.18808 14.135 3.23864 14.2927C3.2892 14.4505 3.39656 14.5838 3.53998 14.6666L4.45995 15.2H4.46006C4.6037 15.2818 4.77257 15.3072 4.93394 15.2715C5.09531 15.2358 5.23763 15.1414 5.33337 15.0067L5.84005 14.3H5.83994C6.12765 14.3978 6.42162 14.4757 6.71996 14.5334L6.80668 15.4C6.8232 15.5651 6.90077 15.718 7.02398 15.8289C7.14731 15.9398 7.30746 16.0008 7.47332 16H8.53337C8.69922 16.0008 8.85937 15.9398 8.98272 15.8289C9.10593 15.718 9.18338 15.5651 9.20002 15.4L9.28673 14.5334C9.58496 14.4757 9.87902 14.3978 10.1666 14.3L10.6666 15.0067C10.7634 15.1403 10.9061 15.2333 11.0674 15.2678C11.2288 15.3023 11.3971 15.2758 11.54 15.1933L12.4599 14.6599L12.46 14.66C12.6034 14.5771 12.7108 14.4438 12.7614 14.286C12.8119 14.1283 12.8019 13.9575 12.7334 13.8067L12.38 13.02C12.6176 12.8138 12.8404 12.5909 13.0466 12.3533L13.8334 12.7067C13.9788 12.772 14.1428 12.783 14.2957 12.7378C14.4487 12.6925 14.5802 12.594 14.6666 12.46L15.2 11.5401V11.54C15.2818 11.3963 15.3072 11.2274 15.2715 11.0661C15.2358 10.9047 15.1414 10.7624 15.0067 10.6666L14.3 10.16V10.1601C14.3978 9.87236 14.4757 9.57839 14.5334 9.28005L15.4 9.19333C15.565 9.17682 15.718 9.09925 15.8289 8.97604C15.9398 8.85271 16.0008 8.69255 16 8.52669V7.46664C15.9992 7.30202 15.9374 7.14344 15.8267 7.02156C15.7158 6.89968 15.5638 6.82312 15.4 6.80672L15.4 6.80667ZM8.00002 12.6666C6.76231 12.6666 5.57537 12.175 4.70032 11.2998C3.82509 10.4247 3.33347 9.23774 3.33347 8.00009C3.33347 6.76244 3.82509 5.57545 4.70032 4.7004C5.57543 3.82517 6.76237 3.33355 8.00002 3.33355C9.23767 3.33355 10.4247 3.82517 11.2997 4.7004C12.1749 5.5755 12.6666 6.76244 12.6666 8.00009C12.6666 9.23774 12.1749 10.4247 11.2997 11.2998C10.4246 12.175 9.23767 12.6666 8.00002 12.6666Z" fill="#419BEF"/>
</svg>
