<svg width="24" height="24" viewBox="0 0 24 24" fill="none" xmlns="http://www.w3.org/2000/svg">
<path d="M18.343 8.75671L9.32276 8.75671C9.17225 8.7551 9.02763 8.81416 8.92133 8.92047C8.81502 9.02678 8.75595 9.17139 8.75757 9.32191L8.75757 18.3422C8.75595 18.4927 8.81502 18.6373 8.92132 18.7436C9.02763 18.8499 9.17225 18.909 9.32276 18.9073L18.343 18.9073C18.4933 18.9084 18.6376 18.8494 18.7439 18.7431C18.8502 18.6367 18.9093 18.4925 18.9082 18.3422L18.9082 9.32191C18.9098 9.17139 18.8508 9.02678 18.7444 8.92047C18.6381 8.81416 18.4935 8.7551 18.343 8.75671Z" fill="#EF41C9"/>
<path d="M8.11784 7.31699L5.71246 4.9116C5.49107 4.69022 5.13205 4.69022 4.91066 4.9116C4.68928 5.13299 4.68928 5.49201 4.91066 5.7134L7.31605 8.11878C7.53744 8.34017 7.89646 8.34017 8.11784 8.11878C8.33923 7.8974 8.33923 7.53838 8.11784 7.31699Z" fill="#EF41C9"/>
<path d="M7.72085 10.1221L5.71636 8.11766C5.49498 7.89627 5.13596 7.89627 4.91457 8.11766C4.69318 8.33904 4.69318 8.69807 4.91457 8.91945L6.91906 10.9239C7.14045 11.1453 7.49947 11.1453 7.72085 10.9239C7.94224 10.7026 7.94224 10.3435 7.72085 10.1221Z" fill="#EF41C9"/>
<path d="M10.924 6.91707L8.91949 4.91258C8.6981 4.69119 8.33908 4.69119 8.11769 4.91258C7.89631 5.13397 7.89631 5.49299 8.11769 5.71437L10.1222 7.71886C10.3436 7.94025 10.7026 7.94025 10.924 7.71886C11.1454 7.49748 11.1454 7.13845 10.924 6.91707Z" fill="#EF41C9"/>
</svg>
