<svg width="16" height="16" viewBox="0 0 16 16" fill="none" xmlns="http://www.w3.org/2000/svg">
<path d="M14.7522 3.76475H12.0933C11.7639 2.58827 11.2933 1.48239 10.7051 0.470703C12.3992 1.08243 13.8109 2.2589 14.7522 3.76475Z" fill="#EF41C9"/>
<path d="M8.77736 9.27066L9.29501 11.2942H4.61264C4.40091 10.3766 4.30671 9.43546 4.25977 8.4707H8.80096C8.70675 8.72954 8.70675 8.98835 8.77733 9.27066H8.77736Z" fill="#EF41C9"/>
<path d="M4.25977 7.52955C4.28324 6.5648 4.42455 5.62371 4.63628 4.70605H11.3422C11.5539 5.62371 11.6481 6.5648 11.6951 7.52955H4.25977Z" fill="#EF41C9"/>
<path d="M7.9769 0C8.44744 0 8.89455 0.0471054 9.34161 0.117681C10.1181 1.17647 10.7063 2.42353 11.1063 3.7648L4.89453 3.76463C5.31798 2.39992 5.92987 1.1763 6.75328 0.0940718C7.15326 0.0234959 7.55341 2.5004e-05 7.97685 2.5004e-05L7.9769 0Z" fill="#EF41C9"/>
<path d="M5.36398 0.446777C4.75226 1.45846 4.2581 2.58801 3.9052 3.76448H1.19922C2.16397 2.23515 3.62276 1.03502 5.36398 0.446777Z" fill="#EF41C9"/>
<path d="M0.682288 4.70605H3.67058C3.48232 5.62371 3.34117 6.5648 3.3177 7.52955H0C0.0471052 6.5177 0.305934 5.5766 0.682271 4.70605H0.682288Z" fill="#EF41C9"/>
<path d="M0 8.4707H3.34119C3.36466 9.43546 3.48234 10.3766 3.6706 11.2942H0.682305C0.305959 10.4237 0.0471344 9.48256 3.33387e-05 8.4707H0Z" fill="#EF41C9"/>
<path d="M1.19922 12.2354H3.88158C4.21099 13.4118 4.68154 14.5177 5.26978 15.5294C3.55217 14.9177 2.14048 13.7412 1.19922 12.2354V12.2354Z" fill="#EF41C9"/>
<path d="M9.20066 15.9061C8.80068 15.9767 8.40053 16.0001 7.97708 16.0001C7.50653 16.0001 7.05943 15.953 6.61237 15.8825C5.8359 14.8237 5.24766 13.5766 4.84766 12.2354H9.5065L10.0947 14.5412C9.8359 15.0119 9.53011 15.4825 9.20074 15.9061L9.20066 15.9061Z" fill="#EF41C9"/>
<path d="M14.7294 12.7292L13.3175 12.7998L13.7646 13.5057L14.894 15.2233C15.0588 15.4587 14.988 15.7881 14.7292 15.9293C14.6821 15.9527 14.6586 15.9764 14.6115 15.9764H14.588C14.5646 15.9764 14.5175 15.9998 14.494 15.9998H14.4705C14.4234 15.9998 14.3999 15.9998 14.3528 15.9764H14.3294C14.3059 15.9764 14.2823 15.9529 14.2588 15.9529C14.2588 15.9529 14.2353 15.9529 14.2353 15.9294C14.2119 15.906 14.1882 15.906 14.1647 15.8823L14.1413 15.8588C14.1178 15.8354 14.0942 15.8117 14.0707 15.7648L13.5531 14.9883L12.4472 13.3413L11.906 14.706C11.8826 14.7531 11.8589 14.8001 11.8355 14.8237L11.812 14.8472C11.7885 14.8706 11.7649 14.8943 11.7414 14.8943C11.7179 14.8943 11.7179 14.9177 11.6943 14.9177C11.6708 14.9177 11.6472 14.9412 11.6237 14.9412H11.5766H11.5295H11.506H11.4355H11.3884C11.3649 14.9412 11.3413 14.9177 11.3178 14.8941C11.3178 14.8941 11.2943 14.8941 11.2943 14.8706C11.2708 14.8472 11.2237 14.8235 11.2003 14.7766C11.1768 14.7295 11.1532 14.6825 11.1297 14.6354L10.7294 13.1763L10.6353 12.8469L9.67059 9.03517C9.67059 8.98807 9.64712 8.9646 9.67059 8.91749V8.89402C9.67059 8.87055 9.67059 8.84692 9.69406 8.82345V8.79998C9.71753 8.7765 9.71753 8.75287 9.74116 8.70593L9.81174 8.63535C9.81174 8.63535 9.83521 8.63535 9.83521 8.61188C9.85868 8.58841 9.88231 8.58841 9.90579 8.58841H9.92926C9.95273 8.58841 9.99983 8.56494 10.0233 8.56494H10.0468H10.1173H10.1645C10.2116 8.58841 10.235 8.58841 10.2821 8.61205L11.5997 9.55314L12.4703 10.1885L14.0233 11.2944L14.9409 11.9532C15.2707 12.1881 15.1294 12.7057 14.7294 12.7292L14.7294 12.7292Z" fill="#EF41C9"/>
<path d="M15.3643 11.0825L12.6113 9.10604C12.6348 8.89431 12.6348 8.68259 12.6348 8.4707H15.976C15.9054 9.38835 15.6937 10.2825 15.3643 11.0825H15.3643Z" fill="#EF41C9"/>
<path d="M12.636 7.52955C12.6126 6.5648 12.4949 5.62371 12.3066 4.70605H15.2714C15.6714 5.5766 15.9068 6.51787 15.9774 7.52955H12.636Z" fill="#EF41C9"/>
</svg>
