<svg width="16" height="16" viewBox="0 0 16 16" fill="none" xmlns="http://www.w3.org/2000/svg">
<path d="M2.63899 8.60497V10.6668C2.63899 10.8317 2.52901 10.9417 2.36409 10.9417H0.302241C0.13733 10.9417 0.0273438 10.8317 0.0273438 10.6668V8.60497C0.0273438 8.46753 0.137327 8.33008 0.302241 8.33008H2.33662C2.50153 8.33008 2.63898 8.43993 2.63898 8.60497H2.63899Z" fill="#C241EF"/>
<path d="M17.5941 8.60497V10.6668C17.5941 10.8317 17.4841 10.9417 17.3192 10.9417H15.2573C15.1199 10.9417 14.9824 10.8317 14.9824 10.6668V8.60497C14.9824 8.46753 15.1199 8.33008 15.2573 8.33008H17.3192C17.4841 8.33008 17.5941 8.43993 17.5941 8.60497Z" fill="#C241EF"/>
<path d="M17.402 0.274897V1.95187C17.402 2.11678 17.292 2.22676 17.1271 2.22676H15.4502C15.3127 2.22676 15.1753 2.11678 15.1753 1.95187V1.40207H11.6838C14.3229 2.44672 16.2198 4.89352 16.5221 7.78006H15.9723C15.6151 4.53614 13.1408 1.9519 9.86942 1.48469V1.95197C9.86942 2.11688 9.73198 2.22686 9.59453 2.22686H7.91756C7.75265 2.22686 7.64266 2.11688 7.64266 1.95197V1.48469C4.45363 2.00701 2.0345 4.59119 1.67713 7.78006H1.09988C1.40224 4.89352 3.29918 2.44665 5.93821 1.40207H2.22676V1.95187C2.22676 2.11678 2.11678 2.22676 1.95187 2.22676H0.274897C0.137448 2.22676 0 2.11678 0 1.95187V0.274897C0 0.109986 0.137448 0 0.274897 0H1.95187C2.11678 0 2.22676 0.109983 2.22676 0.274897V0.852269H7.61493V0.274897C7.61493 0.109986 7.72491 0 7.88982 0H9.56679C9.70424 0 9.84169 0.109983 9.84169 0.274897V0.852269H15.1476V0.274897C15.1476 0.109986 15.285 0 15.4225 0H17.0994C17.2919 0 17.4018 0.109983 17.4018 0.274897H17.402Z" fill="#C241EF"/>
<path d="M8.30273 8.82457C8.30273 9.072 8.49511 9.26437 8.74253 9.26437C8.98996 9.26437 9.18234 9.07199 9.18234 8.82457C9.18234 8.57714 8.98996 8.38477 8.74253 8.38477C8.52269 8.38477 8.30273 8.57714 8.30273 8.82457Z" fill="#C241EF"/>
<path d="M6.3504 11.8489H11.0789L12.0136 8.65989C12.041 8.57737 12.0136 8.49498 11.9861 8.43992L9.04465 3.05176V7.89009C9.45701 8.00007 9.75947 8.38493 9.75947 8.85221C9.75947 9.40201 9.31967 9.84194 8.76974 9.84194C8.21994 9.84194 7.78001 9.40214 7.78001 8.85221C7.78001 8.41241 8.08237 8.02753 8.49482 7.89009V3.05176L5.41579 8.43992C5.38833 8.49485 5.36087 8.57737 5.38833 8.65989L6.3504 11.8489Z" fill="#C241EF"/>
<path d="M11.2996 12.3984H6.13109C5.69129 12.3984 5.36133 12.7558 5.36133 13.1682V15.2301C5.36133 15.6699 5.71874 15.9998 6.13109 15.9998H11.2996C11.7394 15.9998 12.0693 15.6424 12.0693 15.2301V13.1682C12.0693 12.7558 11.7119 12.3984 11.2996 12.3984Z" fill="#C241EF"/>
</svg>
