<svg width="17" height="16" viewBox="0 0 17 16" fill="none" xmlns="http://www.w3.org/2000/svg">
<path d="M3.90434 15.8358L5.04962 14.6905C5.26861 14.4715 5.26861 14.1009 5.04962 13.882C4.83062 13.663 4.46004 13.663 4.24117 13.882L3.09589 15.0273C2.87689 15.2463 2.87689 15.6169 3.09589 15.8358C3.33169 16.0547 3.68534 16.0547 3.90434 15.8358Z" fill="#C241EF"/>
<path d="M3.58278 13.2422C3.80178 13.0232 3.80178 12.6527 3.58278 12.4338C3.36378 12.2148 2.99321 12.2148 2.77434 12.4338L0.955264 14.2529C0.736266 14.4718 0.736266 14.8424 0.955264 15.0613C1.17426 15.2803 1.54484 15.2803 1.76371 15.0613L3.58278 13.2422Z" fill="#C241EF"/>
<path d="M2.11798 11.7764C2.33697 11.5574 2.33697 11.1868 2.11798 10.968C1.89898 10.749 1.5284 10.749 1.30953 10.968L0.164249 12.1132C-0.0547496 12.3322 -0.0547496 12.7028 0.164249 12.9217C0.383247 13.1407 0.753823 13.1407 0.972695 12.9217L2.11798 11.7764Z" fill="#C241EF"/>
<path d="M6.17727 13.124L6.6826 12.6187C7.22164 13.3766 7.67632 14.2187 7.99637 15.0946C8.13114 15.4484 8.56901 15.5662 8.87225 15.3304L10.9271 13.5788C11.8198 12.8209 12.1567 11.5744 11.7525 10.4796L11.6176 10.1933L14.0598 7.75106C15.0705 6.74041 15.6769 5.40985 15.7947 3.99502L16.0137 1.18219C16.0642 0.508522 15.5084 -0.0473355 14.8347 0.00319421L12.0219 0.222075C10.6071 0.323117 9.2764 0.946275 8.26583 1.95693L5.82347 4.39917L5.52035 4.29813C4.40867 3.89386 3.17914 4.23081 2.42119 5.12348L0.669433 7.16145C0.416832 7.44777 0.534672 7.90259 0.905233 8.03733C1.79792 8.35738 2.62327 8.79525 3.38119 9.35111L2.87586 9.85643C2.69058 10.0417 2.69058 10.3448 2.87586 10.547L5.4866 13.1239C5.68868 13.3092 5.99192 13.3092 6.1772 13.1239L6.17727 13.124ZM9.37749 6.63934C8.73742 5.99926 8.73742 4.97182 9.37749 4.33184C10.0176 3.69177 11.045 3.69177 11.685 4.33184C12.3251 4.97192 12.3251 5.99935 11.685 6.63934C11.045 7.27941 10.0176 7.27941 9.37749 6.63934Z" fill="#C241EF"/>
</svg>
