<svg width="16" height="16" viewBox="0 0 16 16" fill="none" xmlns="http://www.w3.org/2000/svg">
<path d="M13.603 2.39601C13.4507 2.24366 13.2038 2.24366 13.0514 2.39601L11.9482 3.49921C11.7959 3.65156 11.7959 3.89846 11.9482 4.05081C12.1006 4.20317 12.3475 4.20317 12.4998 4.05081L13.603 2.94761C13.7554 2.79526 13.7554 2.54836 13.603 2.39601ZM8.08738 0.112089C8.01678 0.0414919 7.91925 0 7.81165 0C7.59631 0 7.42382 0.172483 7.42382 0.387827V1.94781C7.42382 2.16314 7.59617 2.33563 7.81165 2.33563C8.02698 2.33563 8.19947 2.16329 8.19947 1.94781V0.387827C8.19947 0.280091 8.15798 0.182561 8.08738 0.112096L8.08738 0.112089ZM15.8871 7.91181C15.8165 7.84121 15.7191 7.79972 15.6114 7.79972H14.0514C13.8359 7.79972 13.6636 7.97221 13.6636 8.18755C13.6636 8.40288 13.836 8.57538 14.0514 8.57538H15.6114C15.8268 8.57538 15.9992 8.40289 15.9992 8.18755C15.9992 8.07981 15.9577 7.98242 15.8871 7.91168L15.8871 7.91181ZM11.1212 4.87811C9.4396 3.19653 6.50709 2.87333 4.66181 4.71869C2.40387 6.97663 3.42342 9.14473 2.14092 10.7905L5.20902 13.8586C6.85456 12.5762 9.02287 13.5958 11.2808 11.3377C13.1262 9.49233 12.803 6.55993 11.1214 4.87832L11.1212 4.87811ZM9.43633 4.86519C9.43769 4.86655 9.43918 4.86804 9.44054 4.8694C9.44802 4.87634 9.45523 4.88355 9.46204 4.89103C9.59466 5.02489 9.61262 5.23437 9.50475 5.3889C9.39688 5.54343 9.19392 5.59866 9.02252 5.52017C8.09712 5.10159 6.99719 5.19166 6.14402 5.78733C5.96678 5.90894 5.72451 5.86432 5.60221 5.68748C5.47992 5.51065 5.52372 5.26811 5.70015 5.14528C6.78037 4.39115 8.16334 4.27825 9.33709 4.80916H9.33723C9.37273 4.8229 9.4062 4.84181 9.43626 4.8652L9.43633 4.86519ZM2.57196 2.39601C2.41961 2.24365 2.17271 2.24365 2.02036 2.39601C1.86801 2.54836 1.86801 2.79526 2.02036 2.94761L3.12356 4.05081C3.27591 4.20316 3.52281 4.20316 3.67516 4.05081C3.82751 3.89846 3.82751 3.65156 3.67516 3.49921L2.57196 2.39601ZM12.5004 12.3245C12.3481 12.1721 12.1012 12.1721 11.9488 12.3245C11.7965 12.4768 11.7965 12.7237 11.9488 12.8761L13.052 13.9793C13.2044 14.1316 13.4513 14.1316 13.6036 13.9793C13.756 13.8269 13.756 13.58 13.6036 13.4277L12.5004 12.3246V12.3245ZM1.607 11.3592L1.0554 11.9108L4.0891 14.9445L4.64071 14.3929L1.607 11.3592ZM0.503802 12.4624L0.228072 12.7381C-0.088876 13.0551 -0.0628944 13.5502 0.228072 13.8413L2.15861 15.7719C2.44957 16.063 2.94485 16.0888 3.26181 15.7719L3.53754 15.496L0.503802 12.4624ZM0.365871 14.5308C0.0603525 14.8364 0.0603525 15.3284 0.365871 15.6339C0.67139 15.9396 1.16339 15.9396 1.46907 15.6339L0.365871 14.5307V14.5308Z" fill="#EFB441"/>
</svg>
