<svg width="21" height="14" viewBox="0 0 21 14" fill="none" xmlns="http://www.w3.org/2000/svg">
<path d="M4.02511 6.68174L3.70703 6.99982L4.02511 7.3179C4.96014 8.25184 6.08717 8.9715 7.32803 9.42681C6.79142 8.73173 6.50014 7.87813 6.50014 6.99978C6.50014 6.12144 6.79144 5.26784 7.32803 4.57275C6.08717 5.02811 4.96014 5.74773 4.02511 6.68167V6.68174Z" fill="#C241EF"/>
<path d="M21 0H0V14H21V0ZM1 1.5C1 1.22389 1.22389 1 1.5 1H4.5V2H2V4.5H1V1.5ZM4.5 13H1.5C1.22389 13 1 12.7761 1 12.5V9.5H2V12H4.5V13ZM3.31806 8.02503L2.64663 7.3536H2.6464C2.45131 7.15829 2.45131 6.84177 2.6464 6.64646L3.31783 5.97503H3.31806C4.57857 4.71434 6.14909 3.8076 7.8712 3.346C9.59331 2.88462 11.4067 2.88462 13.1288 3.346C14.8509 3.80761 16.4214 4.71429 17.6819 5.97503L18.3534 6.64646H18.3536C18.5487 6.84177 18.5487 7.15829 18.3536 7.3536L17.6819 8.02503C16.4214 9.28571 14.8509 10.1925 13.1288 10.6541C11.4067 11.1154 9.59331 11.1154 7.87119 10.6541C6.14908 10.1925 4.57857 9.28577 3.31805 8.02503H3.31806ZM19.9998 12.5C19.9998 12.6326 19.9471 12.7598 19.8533 12.8536C19.7596 12.9473 19.6324 13 19.4998 13H16.4998V12H18.9998V9.5H19.9998V12.5ZM19.9998 4.5H18.9998V2H16.4998V1H19.4998C19.6324 1 19.7596 1.05268 19.8533 1.14643C19.9471 1.24018 19.9998 1.36741 19.9998 1.5V4.5Z" fill="#C241EF"/>
<path d="M10.5 4C9.70423 4 8.94131 4.31607 8.37857 4.87857C7.81607 5.4413 7.5 6.20423 7.5 7C7.5 7.79577 7.81607 8.55869 8.37857 9.12143C8.9413 9.68393 9.70423 10 10.5 10C11.2958 10 12.0587 9.68393 12.6214 9.12143C13.1839 8.5587 13.5 7.79577 13.5 7C13.4991 6.20469 13.1828 5.44194 12.6205 4.87949C12.058 4.31721 11.2953 4.00091 10.5 4ZM10.5 9C9.96965 9 9.46091 8.78929 9.08571 8.41429C8.71071 8.03906 8.5 7.53034 8.5 7C8.5 6.46966 8.71071 5.96091 9.08571 5.58571C9.46094 5.21071 9.96966 5 10.5 5C11.0303 5 11.5391 5.21071 11.9143 5.58571C12.2893 5.96094 12.5 6.46966 12.5 7C12.5 7.53034 12.2893 8.03909 11.9143 8.41429C11.5391 8.78929 11.0303 9 10.5 9Z" fill="#C241EF"/>
<path d="M11.5 7C11.5 7.55223 11.0522 8 10.5 8C9.94777 8 9.5 7.55223 9.5 7C9.5 6.44777 9.94777 6 10.5 6C11.0522 6 11.5 6.44777 11.5 7Z" fill="#C241EF"/>
<path d="M13.6719 4.57324C14.2085 5.26833 14.4998 6.12193 14.4998 7.00027C14.4998 7.87861 14.2085 8.73221 13.6719 9.4273C14.9127 8.97194 16.0398 8.25233 16.9748 7.31839L17.2929 7.00031L16.9748 6.68222C16.0398 5.74828 14.9127 5.02862 13.6719 4.57331V4.57324Z" fill="#C241EF"/>
</svg>
